<?xml version="1.0" encoding="iso-8859-1"?>
<!-- Generator: Adobe Illustrator 19.0.0, SVG Export Plug-In . SVG Version: 6.00 Build 0)  -->
<svg version="1.1" id="Capa_1" xmlns="http://www.w3.org/2000/svg" xmlns:xlink="http://www.w3.org/1999/xlink" x="0px" y="0px"
	 viewBox="0 0 512 512" style="enable-background:new 0 0 512 512;" xml:space="preserve">
<g>
	<g>
		<path d="M272.491,25.04c-4.433-0.369-28.572-0.367-32.982,0c-62.774,2.498-121.856,28.398-166.373,72.905
			C25.97,145.11,0,207.814,0,274.52c0,11.004,7.232,20.343,17.183,23.533v67.609v8.546v0.823c0,12.769,10.382,23.151,23.151,23.151
			h11.225v29.852c0,12.549,10.202,22.75,22.74,22.75h15.668c6.039,21.025,25.459,36.453,48.409,36.453h7.032
			c27.766,0,50.355-22.59,50.355-50.355v-40.655c0-4.163-3.37-7.523-7.523-7.523c-4.153,0-7.523,3.36-7.523,7.523v40.655
			c0,19.47-15.839,35.309-35.309,35.309h-7.032c-14.645,0-27.234-8.958-32.581-21.687c-4.091-9.715-2.738-3.525-2.738-146.693
			c0-19.419,15.806-35.309,35.319-35.309h7.032c19.47,0,35.309,15.839,35.309,35.309v62.322c0,4.153,3.37,7.523,7.523,7.523
			c4.153,0,7.523-3.37,7.523-7.523V303.81c0-27.766-22.59-50.355-50.355-50.355h-7.032c-22.951,0-42.371,15.428-48.409,36.453
			H74.299c-12.539,0-22.74,10.201-22.74,22.75v29.852c-9.412,0.292-13.268-0.796-19.33,1.465v-45.922
			c9.961-3.19,17.193-12.529,17.193-23.533c0-70.207,37.606-136.21,98.163-172.242c3.571-2.127,4.745-6.751,2.618-10.322
			c-2.127-3.561-6.741-4.735-10.312-2.608c-31.537,18.768-57.969,45.45-76.426,77.168c-19.039,32.691-29.09,70.036-29.09,108.003
			c0,2.297-0.802,4.394-2.147,6.049c-3.845,4.784-11.131,4.844-15.046,0c-1.334-1.655-2.137-3.752-2.137-6.049
			c0-62.683,24.405-121.605,68.722-165.932c41.879-41.869,97.451-66.204,156.493-68.521c75.386-3.431,138.372,18.934,187.97,68.521
			c44.317,44.327,68.722,103.249,68.722,165.932c0,2.297-0.802,4.394-2.137,6.049c-1.776,2.197-4.484,3.611-7.523,3.611
			s-5.758-1.414-7.523-3.611c-1.344-1.655-2.147-3.752-2.147-6.049c0-118.736-96.588-215.335-215.324-215.335
			c-7.514,0.598-46.377-3.704-94.582,16.22c-3.832,1.585-5.667,5.978-4.073,9.82c1.585,3.842,5.978,5.668,9.82,4.083
			c45.307-18.72,81.562-14.506,88.834-15.077c110.441,0,200.278,89.847,200.278,200.288c0,11.004,7.232,20.343,17.193,23.533v45.922
			c-6.063-2.261-9.877-1.171-19.33-1.464v-29.852c0-12.549-10.202-22.75-22.74-22.75h-15.668
			c-6.039-21.025-25.459-36.452-48.409-36.452h-7.032c-7.242,0-14.244,1.515-20.814,4.524c-3.782,1.725-5.447,6.189-3.711,9.971
			c1.725,3.782,6.189,5.437,9.971,3.711c9.509-4.348,16.901-2.867,21.587-3.16c14.645,0,27.234,8.958,32.581,21.687
			c1.765,4.193,2.738,8.797,2.738,13.622v1.194c0,14.888,0,117.314,0,131.877c0,19.419-15.806,35.309-35.319,35.309h-7.032
			c-19.47,0-35.309-15.839-35.309-35.309c1.098-137.752-2.548-135.66,3.401-148.137c1.785-3.752,0.201-8.245-3.551-10.031
			c-3.752-1.785-8.245-0.201-10.031,3.551c-3.23,6.781-4.865,14.023-4.865,21.547v133.071c0,27.766,22.59,50.355,50.355,50.355
			h7.032c22.951,0,42.371-15.428,48.409-36.453h15.668c12.539,0,22.74-10.201,22.74-22.75v-29.852h11.225
			c12.769,0,23.151-10.382,23.151-23.151c0-0.235,0-9.074,0-9.369v-0.007v-67.603c9.951-3.19,17.183-12.529,17.183-23.533
			C512,138.991,404.759,30.302,272.491,25.04z M66.606,395.573c0-14.016,0-63.119,0-82.916c0-4.253,3.451-7.704,7.694-7.704h13.712
			v130.784H74.299c-4.243,0-7.694-3.451-7.694-7.704V395.573z M32.229,374.206v-8.546c0-4.474,3.631-8.105,8.105-8.105h11.225
			v25.579H40.334c-4.474,0-8.105-3.631-8.105-8.105V374.206z M445.394,345.117v50.456v32.46c0,4.253-3.451,7.704-7.694,7.704
			h-13.712V304.953h13.712c4.243,0,7.694,3.451,7.694,7.704V345.117z M479.771,375.03c0,4.474-3.631,8.105-8.105,8.105h-11.225
			v-25.579h11.225c4.474,0,8.105,3.631,8.105,8.105C479.771,365.765,479.771,375.205,479.771,375.03z"/>
	</g>
</g>
<g>
	<g>
		<path d="M345.744,203.411c-23.971-23.971-55.843-37.174-89.745-37.174s-65.773,13.202-89.745,37.174
			c-3.134,3.135-3.134,8.214,0,11.349c3.136,3.133,8.216,3.133,11.351,0c20.94-20.941,48.781-32.473,78.395-32.473
			s57.455,11.533,78.395,32.473c1.568,1.567,3.62,2.35,5.674,2.35C347.156,217.111,350.814,208.482,345.744,203.411z"/>
	</g>
</g>
<g>
	<g>
		<path d="M312.025,245.802c-14.963-14.966-34.861-23.209-56.025-23.209s-41.062,8.242-56.027,23.209
			c-3.134,3.134-3.134,8.214,0,11.348c3.135,3.133,8.214,3.133,11.349,0c11.933-11.934,27.8-18.507,44.677-18.507
			s32.744,6.573,44.677,18.507c1.568,1.567,3.62,2.35,5.675,2.35c2.053,0,4.108-0.783,5.674-2.35
			C315.159,254.017,315.159,248.936,312.025,245.802z"/>
	</g>
</g>
<g>
	<g>
		<path d="M378.616,171.072c-67.885-76.86-176.347-76.674-244.894-8.13c-3.134,3.135-3.134,8.214,0,11.349
			c3.134,3.133,8.213,3.135,11.349,0c62.654-62.653,160.324-61.876,221.516,7.406c1.586,1.796,3.797,2.712,6.018,2.712
			C379.462,184.409,383.191,176.251,378.616,171.072z"/>
	</g>
</g>
<g>
</g>
<g>
</g>
<g>
</g>
<g>
</g>
<g>
</g>
<g>
</g>
<g>
</g>
<g>
</g>
<g>
</g>
<g>
</g>
<g>
</g>
<g>
</g>
<g>
</g>
<g>
</g>
<g>
</g>
</svg>
