<svg id="Capa_1" enable-background="new 0 0 512.656 512.656" height="512" viewBox="0 0 512.656 512.656" width="512" xmlns="http://www.w3.org/2000/svg"><g><g><g><path d="m279.533 283.397c-.025 0-135.642 0-135.658 0-2.623 0-5.246.216-7.833.649-29.568 4.953-46.461 36.67-36.804 64.3 2.137 6.115 5.55 11.765 9.95 16.518 8.893 9.61 21.589 15.19 34.687 15.19h7.786c4.142 0 7.5-3.358 7.5-7.5s-3.358-7.5-7.5-7.5h-7.787c-17.792 0-32.267-14.475-32.267-32.267v-2.123c0-17.792 14.475-32.267 32.267-32.267h135.658c17.792 0 32.267 14.475 32.267 32.267v2.123c0 17.792-14.475 32.267-32.267 32.267h-92.538c-4.142 0-7.5 3.358-7.5 7.5s3.358 7.5 7.5 7.5h92.52c12.825 0 25.273-5.333 34.143-14.593 6.439-6.722 11.131-16.153 12.57-25.314 4.536-28.885-16.647-56.75-46.694-56.75z"/><path d="m505.156 161.385c4.142 0 7.5-3.358 7.5-7.5v-43.886c0-7.947-6.465-14.412-14.412-14.412h-21.875c-7.947 0-14.412 6.465-14.412 14.412v8.046l-45.325 30.827c-.059.04-.116.08-.173.122-.573.414-44.702 31.904-99.847 46.985-1.51-5.034-4.254-9.644-8.083-13.456-6.049-6.022-14.075-9.336-22.608-9.336-.024 0-.049 0-.073 0-17.184.039-31.218 13.667-31.941 30.669h-11.264c-.725-17.041-14.809-30.669-32.009-30.669-.024 0-.048 0-.072 0-8.56.019-16.6 3.37-22.639 9.437-5.697 5.723-8.967 13.216-9.303 21.232h-11.263c-.725-17.041-14.809-30.669-32.009-30.669-.024 0-.048 0-.072 0-8.56.019-16.6 3.37-22.639 9.437-5.697 5.723-8.967 13.216-9.303 21.232h-51.847c-.938-5.857-6.011-10.351-12.128-10.351h-27.062c-6.78-.001-12.297 5.516-12.297 12.297v59.234c0 6.781 5.517 12.297 12.297 12.297h27.062c6.117 0 11.191-4.495 12.128-10.353h27.151c-17.482 15.284-28.549 37.73-28.549 62.721v4.048c0 45.943 37.377 83.32 83.32 83.32h156.591c45.943 0 83.32-37.377 83.32-83.32v-4.048c0-13.335-3.174-25.931-8.774-37.112 30.734 14.161 51.522 28.971 51.913 29.253.057.042.115.082.173.122l45.325 30.827v8.046c0 7.947 6.465 14.412 14.412 14.412h21.875c7.947 0 14.412-6.465 14.412-14.412v-172.184c0-4.142-3.358-7.5-7.5-7.5s-7.5 3.358-7.5 7.5v171.597h-20.699v-249.664h20.699v43.298c0 4.143 3.358 7.501 7.5 7.501zm-468.5 100.948h-21.656v-53.829h21.656zm249.225-74.146h.039c4.539 0 8.808 1.763 12.026 4.966 3.227 3.212 5.009 7.489 5.019 12.042s-1.753 8.837-4.966 12.064-7.489 5.009-12.042 5.02c-4.581.013-8.837-1.753-12.064-4.966-3.227-3.212-5.009-7.489-5.02-12.042-.02-9.4 7.609-17.063 17.008-17.084zm-87.327 5.019c3.212-3.227 7.489-5.009 12.042-5.02h.038c9.381 0 17.024 7.622 17.045 17.008.021 9.399-7.609 17.063-17.008 17.083-.014 0-.026 0-.04 0-4.538 0-8.808-1.763-12.025-4.966-3.227-3.212-5.009-7.489-5.019-12.042-.009-4.552 1.754-8.836 4.967-12.063zm-75.286 0c3.212-3.227 7.489-5.009 12.042-5.02h.038c9.381 0 17.024 7.622 17.045 17.008.021 9.399-7.609 17.063-17.008 17.083-4.526.013-8.838-1.753-12.064-4.966-3.227-3.212-5.009-7.489-5.02-12.042s1.754-8.836 4.967-12.063zm235.052 140.544c0 37.672-30.648 68.32-68.32 68.32h-156.591c-37.672 0-68.32-30.648-68.32-68.32v-4.048c0-28.063 17.013-52.219 41.262-62.721h157.511c26.137.278 52.077 6.667 74.957 14.991 12.053 12.325 19.502 29.17 19.502 47.73v4.048zm103.637.901-36.807-25.033c-4.335-3.117-80.175-56.775-161.209-57.637h-212.285v-33.125h54.67c1.568 3.336 3.722 6.409 6.412 9.087 6.049 6.022 14.074 9.336 22.607 9.335h.073c12.776-.029 23.808-7.57 28.927-18.423h17.267c1.568 3.336 3.721 6.409 6.411 9.087 6.049 6.022 14.074 9.336 22.607 9.335h.073c12.776-.029 23.808-7.57 28.927-18.423h17.266c1.568 3.336 3.722 6.409 6.412 9.087 6.049 6.022 14.074 9.336 22.607 9.335h.073c8.56-.019 16.6-3.37 22.639-9.437 4.555-4.575 7.558-10.283 8.752-16.484 58.232-15.055 104.414-47.727 107.769-50.139l36.807-25.033v198.468z"/></g></g></g></svg>